<svg width="33" height="33" viewBox="0 0 33 33" fill="none" xmlns="http://www.w3.org/2000/svg">
<path fill-rule="evenodd" clip-rule="evenodd" d="M16.5 5.20588C10.2624 5.20588 5.20588 10.2624 5.20588 16.5C5.20588 18.6466 5.80316 20.6511 6.84233 22.3595L22.3595 6.84233C20.6511 5.80317 18.6466 5.20588 16.5 5.20588ZM25.7868 10.0701L10.0701 25.7868C11.8956 27.0536 14.1102 27.7941 16.5 27.7941C22.7376 27.7941 27.7941 22.7376 27.7941 16.5C27.7941 14.1102 27.0536 11.8956 25.7868 10.0701ZM0.5 16.5C0.5 7.66344 7.66344 0.5 16.5 0.5C20.7769 0.5 24.6662 2.1812 27.5347 4.914C30.5907 7.82533 32.5 11.9417 32.5 16.5C32.5 25.3366 25.3366 32.5 16.5 32.5C11.9417 32.5 7.82533 30.5907 4.914 27.5347C2.1812 24.6662 0.5 20.7769 0.5 16.5Z" fill="#BE433C"/>
</svg>
