<svg width="73" height="78" viewBox="0 0 73 78" fill="none" xmlns="http://www.w3.org/2000/svg">
<path opacity="0.5" fill-rule="evenodd" clip-rule="evenodd" d="M33.6446 0.0382296C30.2627 0.389207 26.6785 1.49554 24.2057 2.9516C21.5991 4.48662 21.0007 4.9622 18.5658 7.43333C17.3944 8.6224 16.1896 10.1755 15.4728 11.4212C14.4808 13.1447 14.1357 13.5323 13.2515 13.9149C11.5377 14.6567 6.53474 17.5979 4.72042 18.9301C3.16433 20.0728 3.02255 20.2541 2.91826 21.2348C2.78443 22.4925 2.90833 31.5458 3.07171 32.4525C3.13403 32.7973 3.25868 33.7562 3.34906 34.5835C4.28019 43.118 6.54989 50.0877 10.2883 55.8929C10.9098 56.858 11.4193 57.7688 11.42 57.9167C11.421 58.0649 10.7268 58.4738 9.87735 58.8255C9.02791 59.1775 8.23212 59.6265 8.10896 59.8238C7.8624 60.2187 8.44615 61.673 11.1099 67.2996C11.9911 69.1611 12.81 70.9378 12.9297 71.2481C13.2073 71.9666 13.9663 71.9779 15.6955 71.2897C17.2618 70.6665 21.4287 69.3052 21.7706 69.3052C21.9032 69.3052 22.674 69.8244 23.4829 70.4587C26.4349 72.7734 29.3254 74.5802 33.2721 76.578C36.2654 78.0932 36.6137 78.1932 37.5736 77.8119C40.8162 76.5236 46.5663 73.1166 49.7249 70.6119L51.1556 69.4772L52.4805 69.7981C53.2093 69.9748 55.0795 70.5973 56.6366 71.1817C58.475 71.8719 59.6062 72.173 59.8627 72.0408C60.3814 71.7736 65.1018 61.1174 65.005 60.4325C64.9529 60.0647 64.464 59.6754 63.3958 59.1519C62.5521 58.7383 61.7836 58.3196 61.6882 58.2216C61.5929 58.1236 62.0351 57.2003 62.6712 56.1699C66.9077 49.307 69.0319 41.6231 69.4982 31.4746C69.7406 26.2044 69.5807 21.1962 69.1484 20.5158C68.6428 19.7198 63.9108 16.6257 60.5662 14.9042L57.6124 13.3837L56.1939 11.1978C51.7277 4.31665 44.5379 0.266867 36.3488 0.0199291C35.2712 -0.0126617 34.0543 -0.00438915 33.6446 0.0382296ZM41.3418 1.35641C45.5197 2.39931 49.9141 4.90103 52.6678 7.80437C54.2239 9.44519 55.6198 11.2986 56.3535 12.6985C56.9147 13.769 57.2047 13.9873 59.9539 15.4086C63.0934 17.0318 67.3405 19.783 68.3017 20.8156C68.8554 21.411 68.8678 21.5447 68.8733 27.0011C68.8827 36.3451 67.9471 42.4243 65.5672 48.4867C64.0883 52.2535 60.9915 57.7731 60.3571 57.7731C60.2419 57.7731 59.4158 57.4951 58.5214 57.1551C53.8631 55.3847 47.0636 54.0595 40.3941 53.6223C37.6767 53.444 37.4932 53.3964 37.4932 52.8677C37.4932 52.5207 37.7087 52.4808 38.9209 52.6032C39.7063 52.6822 41.4101 52.817 42.7075 52.9023C44.0048 52.9878 45.5925 53.156 46.2356 53.2761C46.8787 53.3962 47.9354 53.5671 48.584 53.6559C49.2325 53.7446 51.723 54.321 54.1188 54.9367C56.5144 55.5522 58.7151 56.115 59.0091 56.1869C59.4533 56.296 59.7597 55.9949 60.8207 54.4077C65.3946 47.5641 67.3403 40.1164 67.7065 28.0518C67.7904 25.2866 67.7869 22.6354 67.6986 22.1604C67.5573 21.401 67.2452 21.1062 65.1167 19.7221C63.7851 18.8564 61.2083 17.4006 59.3905 16.4871C56.1782 14.8731 56.0672 14.7901 55.45 13.5486C51.8665 6.34305 43.6257 1.49128 35.3827 1.73446C27.0634 1.97964 20.3245 6.16631 16.4044 13.5248C15.6679 14.9072 15.469 15.0897 13.947 15.7776C12.5428 16.4121 11.134 17.1582 8.31803 18.7589C6.87491 19.5792 4.9928 20.9894 4.85425 21.3546C4.7671 21.5835 4.71719 23.3565 4.74301 25.2941C4.87536 35.1664 6.47962 43.5409 9.35319 49.3609C10.2185 51.1133 12.4542 54.8066 13.4092 56.0608C13.4794 56.1531 14.4855 55.95 15.6451 55.6093C20.5334 54.1736 27.3596 53.0005 33.0859 52.6127C35.1833 52.4706 35.5068 52.5009 35.5068 52.8398C35.5068 53.4057 35.4062 53.431 32.4031 53.6225C30.9009 53.7185 29.2248 53.8507 28.6786 53.9166C23.1609 54.5807 19.5672 55.3125 15.7146 56.556C14.0299 57.0997 12.5332 57.4707 12.3884 57.3805C12.2439 57.2902 11.722 56.5803 11.2291 55.8026C6.06198 47.6527 3.79823 39.2021 3.5981 27.3132C3.55167 24.5555 3.57476 21.926 3.6495 21.4694C3.7662 20.756 4.15057 20.3784 6.39147 18.7757C7.8249 17.7503 10.3752 16.2075 12.0589 15.3469C14.2387 14.2328 15.2016 13.601 15.404 13.1523C16.0461 11.7276 18.0017 9.05861 19.5456 7.49977C25.1987 1.79212 33.6006 -0.575979 41.3418 1.35641ZM41.2515 5.36658C42.5977 5.79026 42.9198 5.99458 43.0126 6.48419C43.2436 7.70459 43.2354 18.9148 43.0035 18.9148C41.9993 18.9148 41.2435 18.5516 41.1074 18.0038C40.8668 17.0366 39.2951 15.471 38.1025 15.0112C35.6786 14.0766 32.7772 15.1656 31.7394 17.3996C31.3441 18.2505 31.0046 18.6526 30.665 18.6724C30.3918 18.6884 29.9151 18.7489 29.6055 18.8073L29.0428 18.9131L29.1089 12.333L29.1752 5.75315L31.2857 5.18708C33.0993 4.70072 33.833 4.63704 36.5 4.73457C38.6773 4.81404 40.0956 5.00281 41.2515 5.36658ZM22.3469 15.4868V20.332L19.9081 21.3782C18.5666 21.9538 17.4127 22.4246 17.344 22.4246C16.9757 22.4246 17.7884 18.2201 18.4968 16.4597C19.4274 14.1473 21.6735 10.6418 22.2248 10.6418C22.2918 10.6418 22.3469 12.8221 22.3469 15.4868ZM53.0861 15.1448C54.0108 16.9659 55.3722 21.7545 55.0559 22.0739C54.9836 22.1471 53.7955 21.7848 52.4162 21.2691L49.9082 20.3313L49.9059 16.8027C49.9049 14.862 49.8419 12.6536 49.7664 11.8953L49.6288 10.5164L50.8604 11.8516C51.5375 12.5859 52.5391 14.0678 53.0861 15.1448ZM37.9538 17.5987C38.9922 18.4776 39.2673 19.981 38.5986 21.1237C38.0653 22.0355 37.2953 22.4246 36.0253 22.4246C33.3627 22.4246 32.346 18.781 34.6179 17.3818C35.7392 16.6916 36.9775 16.7721 37.9538 17.5987ZM11.8858 19.5383C12.0256 20.05 12.0318 20.7775 11.901 21.3469C11.7806 21.8706 11.6827 22.6941 11.684 23.1767L11.6857 24.0541L12.1952 23.3647C12.4756 22.9857 12.807 22.6753 12.9322 22.6753C13.3818 22.6753 13.1753 24.8441 12.6633 25.5014C12.1518 26.1578 12.0159 27.312 12.3817 27.8941C12.5327 28.1345 12.6742 28.0172 12.9011 27.4639C13.073 27.0455 13.3774 26.5656 13.578 26.3974C14.5508 25.5821 14.6405 28.5502 13.684 29.9067C13.1882 30.6094 13.1646 30.7804 13.4355 31.6934C13.796 32.9083 14.0374 32.9735 14.2477 31.9123C14.4098 31.094 14.8116 30.447 15.1574 30.447C15.5103 30.447 15.9435 32.2071 15.8251 33.1583C15.7618 33.6664 15.5622 34.4391 15.3816 34.8755C15.0819 35.5996 15.1063 35.7472 15.6585 36.5627L16.2636 37.4567L16.5119 36.04C16.6485 35.2606 16.8913 34.5795 17.0517 34.5261C17.4981 34.3774 18.6224 36.5159 18.6224 37.5139C18.6224 37.9982 18.4998 38.7498 18.3498 39.1843C18.0968 39.9171 18.14 40.0379 18.9457 40.8515C19.9004 41.8154 20.2563 41.9638 19.996 41.2897C19.9029 41.0485 19.7676 40.3714 19.6954 39.7855C19.524 38.3984 19.9881 38.3685 21.1707 39.69C22.1071 40.7366 22.6804 42.13 22.5488 43.0403C22.4684 43.5968 23.3118 44.4106 24.3765 44.8037C24.7507 44.9418 24.7599 44.8774 24.4682 44.1574C23.8226 42.5627 23.7766 42.2298 24.2022 42.2298C24.8932 42.2298 26.4228 43.1534 26.9633 43.8969C27.2491 44.29 27.6156 45.0186 27.778 45.5159C28.0591 46.3778 28.1574 46.4403 29.8657 46.8454C31.6825 47.2761 36.2723 47.9841 36.5 47.8688C36.5683 47.8342 37.4622 47.7281 38.4864 47.6333C40.1612 47.4782 42.6213 47.0249 44.1379 46.5919C44.4721 46.4967 44.7614 46.1648 44.8525 45.7724C45.2173 44.204 46.505 42.857 48.108 42.3669C48.5641 42.2273 48.6667 42.293 48.6667 42.7242C48.6667 43.0147 48.4353 43.7109 48.1522 44.271L47.6377 45.2891L48.8971 44.5971C50.1279 43.9207 50.1565 43.8789 50.1575 42.754C50.1587 41.2265 51.0454 39.698 52.3343 39.0015C52.8634 38.7155 52.8878 38.7458 52.8878 39.6977C52.8878 40.245 52.7725 40.9991 52.6315 41.3734C52.3939 42.0044 52.4075 42.0282 52.8177 41.7033C53.8978 40.8482 54.3895 40.0926 54.2482 39.5054C53.8472 37.8411 53.8447 37.384 54.2303 36.3644C54.4578 35.7633 54.856 35.0776 55.1152 34.8407C55.5691 34.426 55.5965 34.4464 55.8363 35.3739C55.9734 35.9044 56.1204 36.6748 56.1626 37.086L56.2398 37.8338L56.8322 36.7006C57.3989 35.6161 57.407 35.5334 57.0185 34.7745C56.795 34.3386 56.6122 33.5416 56.6122 33.0038C56.6122 31.9607 57.0403 30.447 57.3355 30.447C57.5766 30.447 58.3503 32.1161 58.3503 32.6366C58.3503 33.1858 58.6831 32.794 59.0793 31.7782C59.3651 31.0459 59.3351 30.904 58.726 30.0975C58.0196 29.1621 57.813 27.4143 58.3042 26.5278C58.5192 26.14 58.6088 26.1898 59.0689 26.9515C59.3555 27.4263 59.5903 27.8991 59.5908 28.0026C59.5913 28.1062 59.6909 28.1907 59.8121 28.1907C59.933 28.1907 60.0842 27.8327 60.1478 27.3952C60.2295 26.8324 60.0924 26.3453 59.6792 25.7306C59.3155 25.1896 59.0952 24.4966 59.0952 23.8937C59.0952 22.8047 59.3815 22.6635 59.9444 23.475C60.5299 24.3186 60.7035 23.8248 60.4234 22.114C60.1741 20.5928 60.4035 18.6641 60.8333 18.6641C61.215 18.6641 61.6276 20.1814 61.4963 21.1004C61.4218 21.6219 61.2837 22.669 61.1894 23.4274L61.0178 24.8062L61.6083 24.2795C61.9333 23.9897 62.3946 23.6831 62.6335 23.5979C63.6927 23.2206 62.5757 25.7148 61.4546 26.2305C61.1129 26.3876 60.8284 26.5827 60.8224 26.6642C60.8164 26.7454 60.7216 27.2821 60.6111 27.8572L60.4107 28.9027L61.0565 28.4331C61.6842 27.9768 63.068 27.5115 63.068 27.7567C63.068 27.8239 62.9096 28.2614 62.7162 28.7292C62.2846 29.7718 61.608 30.4151 60.6796 30.6658C60.1249 30.8157 59.8846 31.1146 59.5427 32.079C59.3043 32.7519 59.1449 33.3383 59.1884 33.3821C59.2318 33.426 59.672 33.2911 60.1664 33.0826C60.661 32.874 61.2999 32.7032 61.5862 32.7032H62.1066L61.5472 33.7083C60.8892 34.8903 60.2538 35.3599 58.9885 35.5996C58.2401 35.7412 57.9287 35.9944 57.3532 36.928C56.9621 37.5625 56.6706 38.1106 56.7056 38.1457C56.7406 38.181 57.1523 38.099 57.6203 37.9637C58.6257 37.6726 60.0887 37.6377 60.0882 37.9052C60.0877 38.2098 59.025 39.3528 58.3032 39.8251C57.9235 40.0735 57.0269 40.2951 56.2256 40.3385C54.9226 40.409 54.7296 40.5022 53.6689 41.573L52.5218 42.7312L53.3876 42.7327C54.4533 42.7342 56.1156 43.1814 56.1156 43.4662C56.1156 43.8428 54.8682 44.5129 53.804 44.7082C53.1229 44.833 52.3504 44.7791 51.5668 44.5523C50.4015 44.2146 50.3395 44.2246 49.208 44.9303C48.5688 45.3289 47.7666 45.7792 47.4252 45.9311C47.0247 46.1091 46.9484 46.2131 47.2104 46.2239C48.0427 46.2588 50.1584 47.0811 50.5555 47.524C50.9436 47.957 50.9262 47.9989 50.2513 48.2611C48.9013 48.7853 47.2119 48.594 45.8961 47.7682L44.6899 47.0111L42.7676 47.4842C40.991 47.9214 39.3977 48.2042 38.4864 48.2438C38.2815 48.2528 38.8762 48.5885 39.8076 48.9896C40.7392 49.3907 41.6639 49.855 41.8623 50.0212C42.635 50.6688 41.9214 50.5016 40.0653 49.6003C37.3445 48.2789 35.6905 48.2644 32.8358 49.5359C31.7081 50.0383 30.7315 50.3607 30.6655 50.2529C30.547 50.0593 31.1737 49.7099 33.3046 48.7815L34.3895 48.309L33.148 48.1322C32.4651 48.0352 31.2361 47.7825 30.4167 47.5707C29.5973 47.3588 28.683 47.1307 28.3853 47.0635C28.0424 46.986 27.5332 47.1803 26.9971 47.5932C26.5288 47.9537 25.66 48.313 25.0532 48.397C23.8809 48.5592 21.8503 48.1375 21.8503 47.7319C21.8503 47.2894 23.4412 46.4969 24.6581 46.3332L25.8519 46.1725L24.06 45.1735C22.2767 44.1792 22.2618 44.176 20.9679 44.4893C19.6196 44.816 18.8184 44.7187 17.443 44.0621C15.911 43.3309 16.6164 42.6733 18.9328 42.6733H20.1614L18.9666 41.4489C17.9029 40.3583 17.6546 40.2242 16.6994 40.2242C15.4018 40.2242 14.126 39.7183 13.2865 38.8704C12.0169 37.5886 12.8624 37.0684 14.9777 37.8303C16.066 38.2221 16.0709 38.1411 15.0566 36.5189C14.5782 35.7537 14.2407 35.5003 13.5494 35.387C13.0593 35.3067 12.3392 35.0114 11.9489 34.7306C11.2214 34.2077 10.4812 32.8173 10.7732 32.5225C10.8628 32.432 11.4975 32.5972 12.1838 32.89L13.4313 33.422L13.2659 32.8747C12.782 31.2733 12.4043 30.6999 11.6135 30.3662C10.6319 29.9521 9.43537 28.6088 9.43537 27.9207C9.43537 27.3057 9.84681 27.3115 10.8691 27.941C11.9141 28.5843 11.9573 28.5752 11.7758 27.7519C11.4749 26.3866 11.4034 26.257 10.7956 25.9775C10.1743 25.6917 9.18981 24.3219 9.18807 23.7408C9.18658 23.2755 9.78125 23.3607 10.4964 23.9288C10.8435 24.2046 11.1762 24.4302 11.2353 24.4302C11.3969 24.4302 11.0491 22.3286 10.8278 21.9668C10.5391 21.495 10.5967 19.5348 10.917 18.9304C11.2748 18.2555 11.5889 18.4525 11.8858 19.5383ZM31.8084 22.2875C32.4383 23.3655 34.3472 24.6694 35.363 24.7157C37.9327 24.8326 39.3209 24.2402 40.4867 22.5294C41.1146 21.6078 41.3781 21.4063 41.8034 21.5216C42.0957 21.6008 42.5307 21.6672 42.7696 21.669C43.9241 21.6783 42.7358 25.1968 41.0834 26.6619C38.213 29.2063 34.2944 29.21 31.43 26.6707C30.144 25.5308 29.3751 24.2334 29.1709 22.8598C29.0128 21.7941 29.0416 21.7061 29.5846 21.6021C31.0178 21.3273 31.2976 21.4133 31.8084 22.2875ZM23.3953 26.9339C26.1489 33.9785 34.6879 37.4941 41.7133 34.4757C45.7889 32.7246 48.7084 29.2672 49.6671 25.0569C49.824 24.3675 49.9941 23.6641 50.0452 23.4938C50.1123 23.2705 50.7452 23.3998 52.3199 23.9586C53.5199 24.3846 54.6405 24.8474 54.8103 24.987C55.0147 25.155 55.0686 25.5912 54.9697 26.2771C53.2902 37.9371 41.1462 45.1066 29.9437 41.052C25.7469 39.533 21.7818 36.2065 19.6809 32.4425C18.7019 30.6879 17.381 26.9284 17.381 25.896C17.381 25.3179 18.1581 24.8115 20.4134 23.9205L22.2228 23.2058L22.5401 24.3821C22.7149 25.0291 23.0995 26.1773 23.3953 26.9339ZM37.5466 54.691C38.8166 56.6011 40.4117 59.171 40.7941 59.9236L41.1864 60.6952L39.1898 63.9348C36.8439 67.7416 36.9062 67.6644 36.4076 67.3826C35.9493 67.1236 32.0294 60.9291 32.0331 60.4696C32.0368 60.0296 35.6598 54.2057 36.1621 53.8326C36.6711 53.4546 36.7615 53.5105 37.5466 54.691ZM4.71123 57.6665C0.841983 59.5791 0 60.1124 0 60.6511C0 60.8126 0.977803 61.509 2.17262 62.1989L4.34524 63.4532L4.25784 66.8807C4.1821 69.8545 4.22183 70.308 4.55729 70.308C5.08492 70.308 10.1413 67.4992 10.286 67.1256C10.3501 66.9612 10.0042 66.0023 9.51756 64.9947C8.25968 62.3905 7.44898 60.5117 7.44898 60.2009C7.44898 60.0537 7.9051 59.158 8.46278 58.2103C9.43612 56.556 9.5702 55.7675 8.87794 55.7675C8.69942 55.7675 6.82426 56.6221 4.71123 57.6665ZM63.6538 56.396C63.5746 56.6043 63.9679 57.5517 64.5305 58.5081C65.0919 59.4621 65.551 60.324 65.551 60.4235C65.551 60.523 64.9288 62.0658 64.1682 63.8518C63.4079 65.6378 62.8401 67.2422 62.9066 67.4175C63.0705 67.8487 67.784 70.4334 68.4065 70.4334C68.949 70.4334 68.9433 70.5118 68.7439 65.831L68.6548 63.7357L69.3997 63.3211C71.9984 61.875 73 61.2064 73 60.9174C73 60.7364 72.6926 60.3839 72.3172 60.1337C71.1688 59.3688 64.5156 56.0182 64.1451 56.0182C63.954 56.0182 63.7327 56.1882 63.6538 56.396ZM27.9525 58.7132C28.5981 59.7817 29.1277 60.7857 29.13 60.9442C29.1364 61.4228 26.8029 65.0433 26.4883 65.0428C26.1427 65.0423 23.8367 61.4706 23.8367 60.9357C23.8367 60.4012 26.1427 56.7823 26.4873 56.7758C26.6477 56.7728 27.3072 57.6447 27.9525 58.7132ZM47.9838 58.917C48.6326 59.9464 49.1633 60.8968 49.1633 61.0292C49.1633 61.5103 46.8474 65.0434 46.532 65.0434C46.2587 65.0434 44.1126 62.0054 43.7943 61.1673C43.6317 60.7394 46.1569 56.7743 46.5005 56.9182C46.6676 56.9882 47.335 57.8877 47.9838 58.917ZM20.2364 60.8424C20.6461 61.5649 21.02 62.2463 21.0675 62.3566C21.1936 62.6502 19.5568 65.294 19.2487 65.294C19.1046 65.294 18.6205 64.6756 18.1728 63.9197C17.4669 62.7282 17.3983 62.4699 17.6581 61.9768C18.1817 60.982 19.1794 59.528 19.3383 59.5282C19.4225 59.5285 19.8267 60.1196 20.2364 60.8424ZM54.7972 61.2881L55.5972 62.6331L54.8287 64.0889C54.4059 64.8897 53.9361 65.5447 53.7844 65.5445C53.5666 65.5442 52.3701 63.7207 51.9368 62.7292C51.7915 62.3962 53.4253 59.7506 53.7161 59.8486C53.8708 59.9005 54.3574 60.5483 54.7972 61.2881ZM35.5068 68.1771C35.7623 68.4879 35.7355 68.5581 35.3509 68.5815C35.0954 68.597 34.5508 68.6366 34.1412 68.6694C33.7315 68.7023 32.2283 68.8066 30.8005 68.9011C29.3728 68.9959 28.1683 69.1102 28.1236 69.1553C27.8294 69.4524 35.8102 73.5671 36.6808 73.5671C37.4949 73.5671 44.6914 69.9177 45.0579 69.3188C45.1242 69.211 44.2032 69.0488 43.0117 68.9585C37.8753 68.5699 37.5235 68.514 37.6764 68.1121C37.7989 67.7897 38.2383 67.7579 40.5746 67.9013C42.089 67.9941 43.6634 68.1177 44.0731 68.1756C44.4828 68.2335 45.7119 68.4055 46.8044 68.5576C49.1814 68.8888 49.7118 69.0297 49.6114 69.3042C49.5149 69.5685 47.0838 71.3685 44.7391 72.912C42.1861 74.5927 37.4316 77.0769 36.7679 77.0769C35.0825 77.0769 22.5478 69.3132 23.6311 68.9402C24.3795 68.6827 27.0681 68.2736 28.9269 68.1345C30.0194 68.0527 30.9599 67.9442 31.0168 67.8933C31.0737 67.8427 32.0376 67.801 33.1589 67.801C34.6683 67.801 35.2779 67.8988 35.5068 68.1771Z" fill="#FB7823"/>
</svg>
